<svg width="21" height="11" viewBox="0 0 21 11" fill="none" xmlns="http://www.w3.org/2000/svg">
<path fill-rule="evenodd" clip-rule="evenodd" d="M20.4277 0.259375C20.5005 0.331946 20.5582 0.418158 20.5976 0.513072C20.637 0.607987 20.6572 0.709739 20.6572 0.8125C20.6572 0.915261 20.637 1.01701 20.5976 1.11193C20.5582 1.20684 20.5005 1.29305 20.4277 1.36563L11.0527 10.7406C10.9801 10.8134 10.8939 10.8711 10.799 10.9105C10.7041 10.9499 10.6023 10.9701 10.4996 10.9701C10.3968 10.9701 10.2951 10.9499 10.2002 10.9105C10.1052 10.8711 10.019 10.8134 9.94646 10.7406L0.571457 1.36562C0.424759 1.21893 0.342346 1.01996 0.342346 0.812499C0.342346 0.605037 0.424759 0.406072 0.571457 0.259374C0.718155 0.112676 0.91712 0.030262 1.12458 0.030262C1.33204 0.030262 1.53101 0.112676 1.67771 0.259374L10.4996 9.08281L19.3215 0.259375C19.394 0.18662 19.4802 0.128896 19.5752 0.0895113C19.6701 0.0501262 19.7718 0.0298538 19.8746 0.0298538C19.9773 0.0298538 20.0791 0.0501263 20.174 0.0895113C20.2689 0.128896 20.3551 0.18662 20.4277 0.259375Z" fill="#008833"/>
</svg>
