<svg width="38" height="38" viewBox="0 0 38 38" fill="none" xmlns="http://www.w3.org/2000/svg">
<path fill-rule="evenodd" clip-rule="evenodd" d="M37.2938 0.706235C37.4393 0.851378 37.5547 1.0238 37.6335 1.21363C37.7123 1.40346 37.7528 1.60696 37.7528 1.81249C37.7528 2.01801 37.7123 2.22151 37.6335 2.41134C37.5547 2.60117 37.4393 2.77359 37.2938 2.91874L2.91877 37.2937C2.62538 37.5871 2.22744 37.752 1.81252 37.752C1.3976 37.752 0.999666 37.5871 0.70627 37.2937C0.412875 37.0003 0.248047 36.6024 0.248047 36.1875C0.248047 35.7726 0.412875 35.3746 0.70627 35.0812L35.0813 0.706235C35.2264 0.560725 35.3988 0.445279 35.5887 0.366509C35.7785 0.287739 35.982 0.247192 36.1875 0.247192C36.393 0.247192 36.5965 0.287739 36.7864 0.366509C36.9762 0.445279 37.1486 0.560725 37.2938 0.706235Z" fill="#008833"/>
<path fill-rule="evenodd" clip-rule="evenodd" d="M0.706113 0.706235C0.560603 0.851378 0.445157 1.0238 0.366387 1.21363C0.287617 1.40346 0.24707 1.60696 0.24707 1.81249C0.24707 2.01801 0.287617 2.22151 0.366387 2.41134C0.445157 2.60117 0.560603 2.77359 0.706113 2.91874L35.0811 37.2937C35.3745 37.5871 35.7724 37.752 36.1874 37.752C36.6023 37.752 37.0002 37.5871 37.2936 37.2937C37.587 37.0003 37.7518 36.6024 37.7518 36.1875C37.7518 35.7726 37.587 35.3746 37.2936 35.0812L2.91861 0.706235C2.77347 0.560725 2.60105 0.445279 2.41122 0.366509C2.22139 0.287739 2.01789 0.247192 1.81236 0.247192C1.60684 0.247192 1.40334 0.287739 1.21351 0.366509C1.02368 0.445279 0.851256 0.560725 0.706113 0.706235V0.706235Z" fill="#008833"/>
</svg>
